<svg width="50" height="50" xmlns="http://www.w3.org/2000/svg">
 <metadata id="metadata8">image/svg+xml</metadata>
 <defs>
  <clipPath id="clipPath16">
   <path id="path18" d="m-283.844788,1166.385254l612,0l0,-792.000061l-612,0l0,792.000061z"/>
  </clipPath>
 </defs>
 <g>
  <title>Layer 1</title>
  <g id="g10" transform="matrix(1.25 0 0 -1.25 0 990)">
   <g id="g12">
    <g id="g14" clip-path="url(#clipPath16)">
     <g id="g20">
      <path fill="#ffffff" fill-rule="nonzero" id="path22" d="m12.414001,774.016968l-1.95401,4.017029l4.790009,0.548035l1.612,-3.302063c0.10199,0.018005 0.187988,0.040039 0.285004,0.057068c16.647003,2.849976 22.223999,-5.966064 22.223999,-5.966064l-15.385986,-4.45697l-3.560028,7.281006c1.716003,0.286987 3.332001,0.20697 4.748016,-0.058044l1.506012,-2.813965l5.230988,1.421021c0,0 -6.346008,4.492981 -13.945007,2.291992l4.231995,-8.645996l-15.409973,-4.46106c0.000977,0 -4.475006,9.894043 5.626984,14.088013m-12.414001,-24.687927l42.670013,0l0,42.670959l-42.670013,0l0,-42.670959z"/>
     </g>
     <g id="g24">
      <path fill="#ffffff" fill-rule="nonzero" id="path26" d="m16.092224,766.445679l-2.296997,4.729004c-4.321014,-2.82196 -2.837006,-6.120972 -2.837006,-6.120972l5.134003,1.391968z"/>
     </g>
    </g>
   </g>
  </g>
 </g>
</svg>
