<svg width="90" height="90" xmlns="http://www.w3.org/2000/svg">
 <metadata id="metadata8">image/svg+xml</metadata>
 <defs>
  <clipPath id="clipPath16">
   <path id="path18" d="m0,72l72,0l0,-72l-72,0l0,72z"/>
  </clipPath>
 </defs>
 <g>
  <title>Layer 1</title>
  <g id="g10" transform="matrix(1.25,0,0,-1.25,0,90)">
   <g id="g12">
    <g id="g14" clip-path="url(#clipPath16)">
     <g id="g20">
      <path fill="#193f68" fill-rule="nonzero" id="path22" d="m20.9683,41.6577l-3.296,6.777l8.081999,0.925999l2.720001,-5.571999c0.171999,0.029999 0.316999,0.066998 0.480999,0.097c28.089001,4.807999 37.499001,-10.066002 37.499001,-10.066002l-25.960999,-7.521997l-6.007,12.285997c2.896,0.484001 5.619999,0.348003 8.010998,-0.098999l2.541,-4.746998l8.826,2.396999c0,0 -10.707001,7.581997 -23.528999,3.868l7.139999,-14.590002l-26.000999,-7.526999c0.000999,0 -7.551001,16.694 9.493999,23.771999m-20.945999,-41.659l72,0l0,72.000004l-72,0l0,-72.000004z"/>
     </g>
     <g id="g24">
      <path fill="#193f68" fill-rule="nonzero" id="path26" d="m27.175301,28.8818l-3.875999,7.980001c-7.292,-4.761002 -4.787001,-10.328001 -4.787001,-10.328001l8.663,2.348z"/>
     </g>
    </g>
   </g>
  </g>
 </g>
</svg>
