<svg width="50" height="50" xmlns="http://www.w3.org/2000/svg">
 <metadata id="metadata8">image/svg+xml</metadata>
 <defs>
  <clipPath id="clipPath16">
   <path id="path18" d="m-283.899902,1166.385498l612,0l0,-792l-612,0l0,792z"/>
  </clipPath>
 </defs>
 <g>
  <title>Layer 1</title>
  <g id="g10" transform="matrix(1.25 0 0 -1.25 0 990)">
   <g id="g12">
    <g id="g14" clip-path="url(#clipPath16)">
     <g id="g20">
      <path fill="#193f68" fill-rule="nonzero" id="path22" d="m14.894989,764.114014c2.569,1.570984 6.053009,1.779968 7.916992,1.901001c-0.578003,0.744934 -1.242004,1.532959 -1.242004,2.815979c0,0.704956 0.208008,1.119995 0.415009,1.616028c-0.458984,-0.042053 -0.912994,-0.084045 -1.328003,-0.084045c-4.393005,0 -6.878998,3.271973 -6.878998,6.502014c0,1.906982 0.868011,4.018005 2.652008,5.549988c2.362,1.945007 5.182007,2.277039 7.415985,2.277039l8.542023,0l-2.652008,-1.492065l-2.570007,0c0.955994,-0.786011 2.942993,-2.440979 2.942993,-5.588928c0,-3.065002 -1.738983,-4.515015 -3.481995,-5.880066c-0.535004,-0.536987 -1.15799,-1.119019 -1.15799,-2.031006c0,-0.909973 0.622986,-1.405945 1.074005,-1.781006l1.494995,-1.157959c1.821991,-1.529968 3.479004,-2.940002 3.479004,-5.795044c0,-3.896973 -3.77002,-7.830933 -10.901001,-7.830933c-6.011993,0 -8.916016,2.857971 -8.916016,5.924011c0,1.491943 0.747009,3.601929 3.195007,5.054993m-14.894989,-14.785034l42.669983,0l0,42.671021l-42.669983,0l0,-42.671021z"/>
     </g>
     <g id="g24">
      <path fill="#193f68" fill-rule="nonzero" id="path26" d="m26.459503,775.70874c0,2.979004 -1.78299,7.616943 -5.222015,7.616943c-1.078979,0 -2.237,-0.53894 -2.901978,-1.365967c-0.701996,-0.870972 -0.908997,-1.987 -0.908997,-3.063049c0,-2.772949 1.612,-7.370972 5.177979,-7.370972c1.041016,0 2.15802,0.498047 2.822021,1.159973c0.950989,0.95105 1.03299,2.275024 1.03299,3.023071"/>
     </g>
     <g id="g28">
      <path fill="#193f68" fill-rule="nonzero" id="path30" d="m22.645996,754.878662c3.979004,0 6.096985,1.903015 6.096985,4.472046c0,2.109985 -1.368988,3.22998 -4.516998,5.464966c-0.332001,0.041016 -0.542999,0.041016 -0.957977,0.041016c-0.373016,0 -2.611023,-0.082031 -4.354004,-0.661011c-0.907013,-0.333984 -3.563019,-1.323975 -3.563019,-4.265991c0,-2.938965 2.863007,-5.051025 7.295013,-5.051025"/>
     </g>
    </g>
   </g>
  </g>
 </g>
</svg>
