<?xml version="1.0" encoding="UTF-8" standalone="no"?>
<!-- Created with Inkscape (http://www.inkscape.org/) -->

<svg
   xmlns:dc="http://purl.org/dc/elements/1.1/"
   xmlns:cc="http://creativecommons.org/ns#"
   xmlns:rdf="http://www.w3.org/1999/02/22-rdf-syntax-ns#"
   xmlns:svg="http://www.w3.org/2000/svg"
   xmlns="http://www.w3.org/2000/svg"
   xmlns:inkscape="http://www.inkscape.org/namespaces/inkscape"
   version="1.1"
   width="765"
   height="990"
   id="svg2"
   xml:space="preserve"><metadata
     id="metadata8"><rdf:RDF><cc:Work
         rdf:about=""><dc:format>image/svg+xml</dc:format><dc:type
           rdf:resource="http://purl.org/dc/dcmitype/StillImage" /></cc:Work></rdf:RDF></metadata><defs
     id="defs6"><clipPath
       id="clipPath16"><path
         d="M 0,792 612,792 612,0 0,0 0,792 z"
         inkscape:connector-curvature="0"
         id="path18" /></clipPath></defs><g
     transform="matrix(1.25,0,0,-1.25,0,990)"
     id="g10"><g
       id="g12"><g
         clip-path="url(#clipPath16)"
         id="g14"><g
           transform="translate(319.6895,382.5645)"
           id="g20"><path
             d="m 0,0 -6.402,0 0,10.237 c 0,2.575 -0.932,4.33 -3.244,4.33 -1.772,0 -2.821,-1.183 -3.284,-2.328 -0.172,-0.407 -0.213,-0.978 -0.213,-1.55 l 0,-10.689 -6.404,0 c 0,0 0.083,17.346 0,19.139 l 6.404,0 0,-2.712 c 0.848,1.303 2.366,3.161 5.768,3.161 C -3.16,19.588 0,16.856 0,10.975 L 0,0 z m -26.292,21.753 -0.044,0 c -2.146,0 -3.542,1.472 -3.542,3.31 0,1.876 1.435,3.305 3.628,3.305 2.189,0 3.539,-1.429 3.581,-3.305 0.001,-1.838 -1.391,-3.31 -3.623,-3.31 M -23.089,0 l -6.402,0 0,19.139 6.402,0 0,-19.139 z m -12.755,-7.564 42.67,0 0,42.67 -42.67,0 0,-42.67 z"
             inkscape:connector-curvature="0"
             id="path22"
             style="fill:#ffffff;fill-opacity:1;fill-rule:nonzero;stroke:none" /></g><g
           transform="translate(306.5469,398.9302)"
           id="g24"><path
             d="M 0,0 0,0.062 C -0.018,0.041 -0.029,0.019 -0.045,0 L 0,0 z"
             inkscape:connector-curvature="0"
             id="path26"
             style="fill:#ffffff;fill-opacity:1;fill-rule:nonzero;stroke:none" /></g></g></g></g></svg>