<svg width="50" height="50" xmlns="http://www.w3.org/2000/svg">
 <metadata id="metadata8">image/svg+xml</metadata>
 <defs>
  <clipPath id="clipPath16">
   <path id="path18" d="m-283.899994,1166.330078l612,0l0,-792.000061l-612,0l0,792.000061z"/>
  </clipPath>
 </defs>
 <g>
  <title>Layer 1</title>
  <g id="g10" transform="matrix(1.25 0 0 -1.25 0 990)">
   <g id="g12">
    <g id="g14" clip-path="url(#clipPath16)">
     <g id="g20">
      <path fill="#193f68" fill-rule="nonzero" id="path22" d="m22.225006,783.661987c6.709991,0 11.123993,-4.854004 11.123993,-10.065979c0,-6.89502 -3.829987,-12.049011 -9.480988,-12.049011c-1.895996,0 -3.684998,1.028015 -4.291992,2.193054c0,0 -1.022003,-4.05304 -1.238007,-4.832031c-0.759003,-2.762024 -3.003021,-5.523987 -3.171997,-5.752991c-0.121002,-0.156982 -0.391998,-0.109009 -0.417999,0.101013c-0.046997,0.353943 -0.622009,3.839966 0.053986,6.677002c0.338013,1.431946 2.259003,9.583984 2.259003,9.583984c0,0 -0.561005,1.121033 -0.561005,2.776978c0,2.607971 1.509003,4.550049 3.388,4.550049c1.601013,0 2.371002,-1.197021 2.371002,-2.638c0,-1.604004 -1.022003,-4.011047 -1.549988,-6.235046c-0.44101,-1.865967 0.936981,-3.387024 2.773987,-3.387024c3.328003,0 5.575012,4.277039 5.575012,9.346069c0,3.854004 -2.598999,6.737976 -7.315002,6.737976c-5.332001,0 -8.654999,-3.981018 -8.654999,-8.421997c0,-1.532043 0.450989,-2.611023 1.158997,-3.442993c0.325989,-0.388977 0.371002,-0.54303 0.257996,-0.983032c-0.088989,-0.322998 -0.283997,-1.101013 -0.360992,-1.41095c-0.118011,-0.444031 -0.480011,-0.602051 -0.884003,-0.438049c-2.45401,1.002014 -3.597992,3.692017 -3.597992,6.716003c-0.001007,4.990051 4.212982,10.974976 12.562988,10.974976m-22.225006,-34.33197l42.670013,0l0,42.669983l-42.670013,0l0,-42.669983z"/>
     </g>
    </g>
   </g>
  </g>
 </g>
</svg>
