<svg width="50" height="50" xmlns="http://www.w3.org/2000/svg">
 <metadata id="metadata8">image/svg+xml</metadata>
 <defs>
  <clipPath id="clipPath16">
   <path id="path18" d="m-284.955902,1166.385254l612,0l0,-792.000061l-612,0l0,792.000061z"/>
  </clipPath>
 </defs>
 <g>
  <title>Layer 1</title>
  <g id="g10" transform="matrix(1.25 0 0 -1.25 0 990)">
   <g id="g12">
    <g id="g14" clip-path="url(#clipPath16)">
     <g id="g20">
      <path fill="#193f68" fill-rule="nonzero" id="path22" d="m11.776001,768.268005c0.325989,-0.062988 0.664001,-0.096008 1.007996,-0.096008c0.485016,0 0.959991,0.065002 1.410004,0.188049c-2.447998,0.490967 -4.295013,2.654968 -4.295013,5.249939l0,0.067017c0.721008,-0.400024 1.548004,-0.641968 2.425018,-0.669006c-1.438019,0.959045 -2.380005,2.596985 -2.380005,4.455017c0,0.979004 0.264008,1.900024 0.722992,2.690002c2.641998,-3.237976 6.587006,-5.369995 11.031006,-5.591003c-0.087982,0.390991 -0.134003,0.799988 -0.134003,1.219971c0,2.955017 2.394012,5.35199 5.348999,5.35199c1.537018,0 2.932007,-0.648926 3.910004,-1.690002c1.214996,0.240051 2.362,0.685059 3.395996,1.298035c-0.399994,-1.248962 -1.247986,-2.299011 -2.35498,-2.960999c1.085999,0.129028 2.117981,0.417969 3.074982,0.843018c-0.717987,-1.075012 -1.625,-2.017029 -2.669983,-2.771057c0.010986,-0.229919 0.017975,-0.458923 0.017975,-0.691956c0,-7.07196 -5.386993,-15.229004 -15.228973,-15.229004c-3.02301,0 -5.83902,0.886963 -8.20401,2.405029c0.415009,-0.049072 0.84201,-0.075073 1.273987,-0.075073c2.507996,0 4.81601,0.856079 6.64801,2.291077c-2.343994,0.040955 -4.317993,1.588928 -5,3.714966m-11.776001,-18.938965l42.669983,0l0,42.670959l-42.669983,0l0,-42.670959z"/>
     </g>
    </g>
   </g>
  </g>
 </g>
</svg>
