<svg width="50" height="50" xmlns="http://www.w3.org/2000/svg">
 <metadata id="metadata8">image/svg+xml</metadata>
 <defs>
  <clipPath id="clipPath16">
   <path id="path18" d="m-284.955902,1166.385254l612,0l0,-792.000061l-612,0l0,792.000061z"/>
  </clipPath>
 </defs>
 <g>
  <title>Layer 1</title>
  <g id="g10" transform="matrix(1.25 0 0 -1.25 0 990)">
   <g id="g12">
    <g id="g14" clip-path="url(#clipPath16)">
     <g id="g20">
      <path fill="#ffffff" fill-rule="nonzero" id="path22" d="m11.776001,768.268005c0.325989,-0.062988 0.664001,-0.096008 1.007996,-0.096008c0.485016,0 0.959991,0.065002 1.410004,0.188049c-2.447998,0.490967 -4.295013,2.654968 -4.295013,5.248962l0,0.066956c0.721008,-0.399963 1.548004,-0.641968 2.425018,-0.668945c-1.438019,0.958984 -2.380005,2.596985 -2.380005,4.455017c0,0.979004 0.264008,1.899963 0.722992,2.689941c2.641998,-3.237976 6.587006,-5.369995 11.031006,-5.590942c-0.087982,0.390991 -0.134003,0.799927 -0.134003,1.219971c0,2.955017 2.394012,5.35199 5.348999,5.35199c1.537994,0 2.932007,-0.648987 3.910004,-1.690002c1.214996,0.23999 2.362,0.684998 3.395996,1.297974c-0.399994,-1.248962 -1.247986,-2.29895 -2.35498,-2.960999c1.085999,0.129028 2.117981,0.41803 3.074982,0.843079c-0.717987,-1.075012 -1.625,-2.017029 -2.669983,-2.770996c0.010986,-0.230042 0.016998,-0.459045 0.016998,-0.692078c0,-7.07196 -5.386017,-15.228943 -15.229004,-15.228943c-3.02301,0 -5.83902,0.885986 -8.20401,2.404968c0.415009,-0.048035 0.84201,-0.075012 1.274017,-0.075012c2.507996,0 4.815979,0.857056 6.64798,2.291016c-2.342987,0.041992 -4.316986,1.589966 -4.998993,3.716003m-11.776001,-18.938965l42.669983,0l0,42.670959l-42.669983,0l0,-42.670959z"/>
     </g>
    </g>
   </g>
  </g>
 </g>
</svg>
