<?xml version="1.0" encoding="utf-8"?>
<!-- Generator: Adobe Illustrator 15.1.0, SVG Export Plug-In . SVG Version: 6.00 Build 0)  -->
<!DOCTYPE svg PUBLIC "-//W3C//DTD SVG 1.1//EN" "http://www.w3.org/Graphics/SVG/1.1/DTD/svg11.dtd">
<svg version="1.1" id="Layer_1" xmlns="http://www.w3.org/2000/svg" xmlns:xlink="http://www.w3.org/1999/xlink" x="0px" y="0px"
	 width="612px" height="792px" viewBox="0 0 612 792" enable-background="new 0 0 612 792" xml:space="preserve">
<path fill="#FFFFFF" d="M283.845,417.056h42.671v-42.67h-42.671V417.056z M296.259,392.368l-1.954-4.017l4.79-0.548l1.612,3.302
	c0.102-0.018,0.188-0.04,0.285-0.057c16.646-2.85,22.224,5.965,22.224,5.965l-15.386,4.458l-3.56-7.281
	c1.716-0.287,3.331-0.207,4.748,0.058l1.506,2.814l5.231-1.421c0,0-6.346-4.493-13.945-2.292l4.232,8.646l-15.41,4.461
	C290.633,406.456,286.157,396.563,296.259,392.368z"/>
<path fill="#FFFFFF" d="M299.937,399.939l-2.297-4.729c-4.321,2.822-2.837,6.121-2.837,6.121L299.937,399.939z"/>
</svg>
