<?xml version="1.0" encoding="utf-8"?>
<!-- Generator: Adobe Illustrator 15.1.0, SVG Export Plug-In . SVG Version: 6.00 Build 0)  -->
<!DOCTYPE svg PUBLIC "-//W3C//DTD SVG 1.1//EN" "http://www.w3.org/Graphics/SVG/1.1/DTD/svg11.dtd">
<svg version="1.1" id="Layer_1" xmlns="http://www.w3.org/2000/svg" xmlns:xlink="http://www.w3.org/1999/xlink" x="0px" y="0px"
	 width="612px" height="792px" viewBox="0 0 612 792" enable-background="new 0 0 612 792" xml:space="preserve">
<path fill="#FFFFFF" d="M283.9,417.056h42.67v-42.67H283.9V417.056z M298.795,402.271c2.569-1.571,6.053-1.78,7.917-1.901
	c-0.578-0.745-1.242-1.532-1.242-2.815c0-0.706,0.208-1.121,0.415-1.616c-0.459,0.042-0.913,0.084-1.328,0.084
	c-4.393,0-6.879-3.273-6.879-6.503c0-1.907,0.868-4.017,2.652-5.55c2.362-1.944,5.182-2.276,7.416-2.276h8.542l-2.652,1.491h-2.57
	c0.955,0.786,2.943,2.442,2.943,5.59c0,3.065-1.739,4.514-3.482,5.879c-0.536,0.538-1.159,1.12-1.159,2.032
	c0,0.91,0.623,1.407,1.076,1.782l1.494,1.157c1.822,1.53,3.479,2.941,3.479,5.796c0,3.895-3.771,7.83-10.901,7.83
	c-6.012,0-8.916-2.859-8.916-5.924C295.6,405.835,296.347,403.725,298.795,402.271z"/>
<path fill="#FFFFFF" d="M310.36,390.677c0-2.98-1.784-7.617-5.223-7.617c-1.079,0-2.237,0.539-2.901,1.366
	c-0.703,0.871-0.91,1.987-0.91,3.063c0,2.774,1.612,7.371,5.178,7.371c1.041,0,2.158-0.498,2.822-1.16
	C310.277,392.749,310.36,391.425,310.36,390.677z"/>
<path fill="#FFFFFF" d="M306.546,411.507c3.98,0,6.097-1.904,6.097-4.472c0-2.11-1.369-3.23-4.517-5.465
	c-0.332-0.041-0.543-0.041-0.958-0.041c-0.373,0-2.611,0.082-4.354,0.661c-0.907,0.334-3.563,1.323-3.563,4.266
	C299.251,409.395,302.114,411.507,306.546,411.507z"/>
</svg>
