<?xml version="1.0" encoding="utf-8"?>
<!-- Generator: Adobe Illustrator 15.1.0, SVG Export Plug-In . SVG Version: 6.00 Build 0)  -->
<!DOCTYPE svg PUBLIC "-//W3C//DTD SVG 1.1//EN" "http://www.w3.org/Graphics/SVG/1.1/DTD/svg11.dtd">
<svg version="1.1" id="Layer_1" xmlns="http://www.w3.org/2000/svg" xmlns:xlink="http://www.w3.org/1999/xlink" x="0px" y="0px"
	 width="612px" height="792px" viewBox="0 0 612 792" enable-background="new 0 0 612 792" xml:space="preserve">
<path fill="#FFFFFF" d="M283.845,374.33V417h42.671v-42.67H283.845z M296.6,409.436h-6.402v-19.139h6.402V409.436z M293.398,387.682
	h-0.045c-2.146,0-3.542-1.471-3.542-3.309c0-1.877,1.435-3.305,3.628-3.305c2.19,0,3.539,1.428,3.581,3.305
	C297.021,386.211,295.63,387.682,293.398,387.682z M319.689,409.436h-6.402v-10.239c0-2.574-0.931-4.33-3.243-4.33
	c-1.772,0-2.821,1.184-3.284,2.328c-0.172,0.409-0.213,0.979-0.213,1.55v10.691h-6.405c0,0,0.083-17.346,0-19.139h6.405v2.712
	c0.848-1.304,2.365-3.162,5.768-3.162c4.215,0,7.375,2.732,7.375,8.614V409.436z"/>
<path fill="#FFFFFF" d="M306.547,393.07v-0.062c-0.018,0.021-0.03,0.043-0.045,0.062H306.547z"/>
</svg>
