<?xml version="1.0" encoding="utf-8"?>
<!-- Generator: Adobe Illustrator 15.1.0, SVG Export Plug-In . SVG Version: 6.00 Build 0)  -->
<!DOCTYPE svg PUBLIC "-//W3C//DTD SVG 1.1//EN" "http://www.w3.org/Graphics/SVG/1.1/DTD/svg11.dtd">
<svg version="1.1" id="Layer_1" xmlns="http://www.w3.org/2000/svg" xmlns:xlink="http://www.w3.org/1999/xlink" x="0px" y="0px"
	 width="612px" height="792px" viewBox="0 0 612 792" enable-background="new 0 0 612 792" xml:space="preserve">
<path fill="#FFFFFF" d="M283.9,417h42.67v-42.67H283.9V417z M306.125,382.668c6.71,0,11.124,4.854,11.124,10.066
	c0,6.895-3.83,12.049-9.482,12.049c-1.896,0-3.684-1.028-4.292-2.193c0,0-1.022,4.053-1.238,4.832
	c-0.759,2.762-3.003,5.524-3.172,5.753c-0.121,0.157-0.392,0.109-0.418-0.101c-0.047-0.354-0.622-3.839,0.054-6.678
	c0.338-1.43,2.259-9.583,2.259-9.583s-0.561-1.12-0.561-2.777c0-2.608,1.509-4.55,3.388-4.55c1.601,0,2.371,1.197,2.371,2.638
	c0,1.604-1.022,4.011-1.55,6.236c-0.441,1.864,0.937,3.386,2.774,3.386c3.328,0,5.575-4.277,5.575-9.346
	c0-3.854-2.597-6.738-7.315-6.738c-5.332,0-8.655,3.981-8.655,8.422c0,1.532,0.451,2.611,1.159,3.443
	c0.326,0.389,0.371,0.543,0.258,0.984c-0.089,0.323-0.284,1.1-0.361,1.411c-0.118,0.444-0.48,0.602-0.884,0.438
	c-2.454-1.002-3.598-3.693-3.598-6.717C293.561,388.653,297.775,382.668,306.125,382.668z"/>
</svg>
