<?xml version="1.0" encoding="utf-8"?>
<!-- Generator: Adobe Illustrator 15.1.0, SVG Export Plug-In . SVG Version: 6.00 Build 0)  -->
<!DOCTYPE svg PUBLIC "-//W3C//DTD SVG 1.1//EN" "http://www.w3.org/Graphics/SVG/1.1/DTD/svg11.dtd">
<svg version="1.1" id="Layer_1" xmlns="http://www.w3.org/2000/svg" xmlns:xlink="http://www.w3.org/1999/xlink" x="0px" y="0px"
	 width="612px" height="792px" viewBox="0 0 612 792" enable-background="new 0 0 612 792" xml:space="preserve">
<path fill="#FFFFFF" d="M284.956,417.056h42.67v-42.67h-42.67V417.056z M296.732,398.117c0.326,0.063,0.664,0.096,1.008,0.096
	c0.485,0,0.96-0.065,1.41-0.187c-2.448-0.492-4.295-2.656-4.295-5.25c0-0.022,0-0.044,0-0.067c0.721,0.4,1.548,0.642,2.425,0.669
	c-1.438-0.959-2.38-2.597-2.38-4.455c0-0.979,0.264-1.9,0.723-2.69c2.642,3.238,6.587,5.37,11.032,5.591
	c-0.089-0.391-0.136-0.8-0.136-1.22c0-2.955,2.395-5.352,5.35-5.352c1.538,0,2.932,0.649,3.91,1.69
	c1.215-0.24,2.362-0.685,3.396-1.298c-0.4,1.249-1.248,2.299-2.354,2.961c1.085-0.129,2.116-0.418,3.073-0.843
	c-0.717,1.075-1.624,2.017-2.67,2.771c0.012,0.23,0.018,0.459,0.018,0.692c0,7.072-5.386,15.229-15.229,15.229
	c-3.023,0-5.839-0.886-8.204-2.405c0.415,0.049,0.842,0.075,1.274,0.075c2.508,0,4.816-0.856,6.648-2.291
	C299.388,401.791,297.414,400.243,296.732,398.117z"/>
</svg>
